<svg width="12" height="12" viewBox="0 0 12 12" fill="none" xmlns="http://www.w3.org/2000/svg">
<path d="M7.08042 3.96302C6.94443 2.7869 6.64653 1.28935 5.99766 0C5.35074 1.29016 5.05251 2.78635 4.91721 3.96239C4.33762 3.55869 3.65094 3.16686 2.92504 2.9262C3.16561 3.65239 3.55847 4.33815 3.96082 4.91916C2.78525 5.05452 1.28846 5.35167 0 6.00004C1.29002 6.64797 2.7858 6.94719 3.96144 7.08323C3.55824 7.66282 3.16697 8.34954 2.92682 9.07559C3.65258 8.83535 4.33784 8.44273 4.91839 8.04055C5.05676 9.21429 5.35347 10.7107 6.00234 12C6.64926 10.7098 6.94749 9.21365 7.08279 8.03761C7.66238 8.44131 8.34906 8.83314 9.07496 9.0738C8.8344 8.34761 8.44153 7.66185 8.03918 7.08084C9.21475 6.94548 10.7115 6.64833 12 5.99996C10.71 5.35203 9.2142 5.05281 8.03856 4.91677C8.44176 4.33718 8.83303 3.65046 9.07318 2.92441C8.34742 3.16465 7.66216 3.55727 7.08161 3.95945L7.08042 3.96302ZM7.19167 5.99975C7.19167 5.99975 7.19167 5.99975 7.19286 6.00332L7.18929 5.99975C6.85148 6.38295 6.61118 6.61143 6.61118 6.61143C6.61118 6.61143 6.38399 6.853 5.99975 7.18976L6.00332 7.19334L5.99975 7.19214C5.99975 7.19214 5.99975 7.19214 5.99618 7.19333L5.99975 7.18976C5.61651 6.85159 5.38798 6.61107 5.38798 6.61107C5.38798 6.61107 5.14637 6.38364 4.80952 5.99906L4.80595 6.00263L4.80714 5.99906C4.80714 5.99906 4.80714 5.99906 4.80595 5.99549L4.80952 5.99906C5.14734 5.61586 5.38763 5.38738 5.38763 5.38738C5.38763 5.38738 5.61482 5.14581 5.99906 4.80905L5.99549 4.80547L5.99906 4.80667C5.99906 4.80667 5.99906 4.80667 6.00263 4.80548L5.99906 4.80905C6.3823 5.14722 6.60964 5.38893 6.60964 5.38893C6.60964 5.38893 6.85125 5.61636 7.1881 6.00094L7.19167 5.99737L7.19048 6.00094L7.19167 5.99975Z" fill="white"/>
</svg>
