<svg width="66" height="16" viewBox="0 0 66 16" fill="none" xmlns="http://www.w3.org/2000/svg">
<rect width="16" height="16" rx="3" fill="#F05322"/>
<path d="M8.99418 6.12575C8.86905 5.04394 8.59492 3.66646 7.99785 2.4805C7.40256 3.66721 7.12814 5.04343 7.00363 6.12517C6.47031 5.75384 5.83844 5.39343 5.17048 5.17206C5.39184 5.84002 5.75335 6.4708 6.12358 7.00522C5.04185 7.12973 3.66453 7.40305 2.47891 7.99944C3.66597 8.59541 5.04235 8.87063 6.12416 8.99577C5.75314 9.52888 5.3931 10.1605 5.17212 10.8284C5.83995 10.6074 6.47052 10.2463 7.00472 9.87633C7.13205 10.9559 7.40508 12.3323 8.00215 13.5183C8.59744 12.3316 8.87186 10.9554 8.99637 9.87362C9.52969 10.245 10.1616 10.6054 10.8295 10.8267C10.6082 10.1588 10.2467 9.528 9.87642 8.99357C10.9582 8.86907 12.3355 8.59574 13.5211 7.99936C12.334 7.40338 10.9576 7.12816 9.87584 7.00302C10.2469 6.46991 10.6069 5.83825 10.8279 5.17042C10.16 5.3914 9.52948 5.75254 8.99528 6.12246L8.99418 6.12575ZM9.09655 7.99917C9.09655 7.99917 9.09655 7.99917 9.09765 8.00245C9.09765 8.00245 9.09546 8.00026 9.09436 7.99917C8.78351 8.35164 8.5624 8.5618 8.5624 8.5618C8.5624 8.5618 8.35334 8.784 7.99977 9.09376C7.99977 9.09376 8.00196 9.09595 8.00306 9.09704L7.99977 9.09595C7.99977 9.09595 7.99977 9.09595 7.99649 9.09704C7.99649 9.09704 7.99868 9.09485 7.99977 9.09376C7.64712 8.7827 7.43683 8.56147 7.43683 8.56147C7.43683 8.56147 7.2145 8.35228 6.90454 7.99853C6.90454 7.99853 6.90235 8.00072 6.90126 8.00181L6.90235 7.99853C6.90235 7.99853 6.90235 7.99853 6.90126 7.99524C6.90126 7.99524 6.90345 7.99744 6.90454 7.99853C7.21539 7.64606 7.43651 7.4359 7.43651 7.4359C7.43651 7.4359 7.64557 7.21369 7.99913 6.90394C7.99913 6.90394 7.99694 6.90175 7.99585 6.90065L7.99913 6.90175C7.99913 6.90175 7.99913 6.90175 8.00242 6.90065C8.00242 6.90065 8.00023 6.90284 7.99913 6.90394C8.35179 7.21499 8.56098 7.43732 8.56098 7.43732C8.56098 7.43732 8.78331 7.64651 9.09327 8.00026C9.09327 8.00026 9.09546 7.99807 9.09655 7.99698L9.09546 8.00026L9.09655 7.99917Z" fill="#F4F4F5"/>
<path d="M22 12.3504V10.9294L26.4854 4.92105H22.2262V3.5H28.282V4.92105L23.8344 10.9294H28.3826V12.3504H22Z" fill="#F4F4F5"/>
<path d="M31.7951 12.5C31.3763 12.5 30.9994 12.4252 30.6643 12.2756C30.3293 12.126 30.0612 11.9141 29.8602 11.6399C29.6592 11.3573 29.5587 11.0249 29.5587 10.6427C29.5587 10.0859 29.7346 9.64958 30.0864 9.33379C30.4465 9.01801 30.9617 8.78947 31.6317 8.6482L33.7299 8.21191C33.7299 7.25623 33.3237 6.77839 32.5112 6.77839C32.1259 6.77839 31.8286 6.86981 31.6192 7.05263C31.4098 7.23546 31.2716 7.47645 31.2046 7.77562L29.6592 7.68837C29.7848 7.04848 30.0947 6.53324 30.5889 6.14266C31.0831 5.74377 31.7155 5.54432 32.4861 5.54432C33.3991 5.54432 34.0817 5.78532 34.534 6.26731C34.9864 6.74931 35.2125 7.42244 35.2125 8.2867V10.7673C35.2125 10.9335 35.2418 11.0499 35.3005 11.1163C35.3675 11.1745 35.4638 11.2036 35.5894 11.2036H35.9161V12.3504C35.8658 12.3587 35.7821 12.367 35.6648 12.3753C35.5559 12.392 35.4428 12.4003 35.3256 12.4003C34.5215 12.4003 34.0357 12.0596 33.8681 11.3781C33.709 11.7105 33.4452 11.9806 33.0766 12.1884C32.7164 12.3961 32.2893 12.5 31.7951 12.5ZM32.0589 11.3532C32.6034 11.3532 33.018 11.2119 33.3028 10.9294C33.5876 10.6385 33.7299 10.2479 33.7299 9.75762V9.30886L32.0589 9.65789C31.7071 9.73269 31.46 9.84072 31.3176 9.98199C31.1752 10.1233 31.1041 10.3144 31.1041 10.5554C31.1041 10.8047 31.1878 11 31.3553 11.1413C31.5229 11.2825 31.7574 11.3532 32.0589 11.3532Z" fill="#F4F4F5"/>
<path d="M37.4691 12.3504V11.1537H39.1276V6.89058H37.4691V5.69391H40.2584L40.3463 6.97784C40.5641 6.12188 41.1002 5.69391 41.9545 5.69391H43.4245V6.92798H42.0425C41.0876 6.92798 40.6102 7.43906 40.6102 8.46122V11.1537H42.6832V12.3504H37.4691Z" fill="#F4F4F5"/>
<path d="M47.8547 12.5C47.2265 12.5 46.6737 12.3587 46.1963 12.0762C45.7272 11.7853 45.3628 11.3823 45.1032 10.867C44.8435 10.3435 44.7137 9.72853 44.7137 9.02216C44.7137 8.3241 44.8435 7.71745 45.1032 7.20222C45.3628 6.67867 45.723 6.27147 46.1837 5.98061C46.6528 5.68975 47.2014 5.54432 47.8296 5.54432C48.4327 5.54432 48.9645 5.6856 49.4252 5.96814C49.8943 6.25069 50.2586 6.65374 50.5183 7.17729C50.7863 7.70083 50.9204 8.3241 50.9204 9.04709V9.43352H46.2465C46.2884 10.0069 46.4517 10.4432 46.7365 10.7424C47.0297 11.0332 47.4108 11.1787 47.8798 11.1787C48.24 11.1787 48.5374 11.0956 48.7719 10.9294C49.0064 10.7632 49.1739 10.5388 49.2745 10.2562L50.7947 10.3684C50.5769 11.0332 50.2168 11.5568 49.7142 11.9391C49.22 12.313 48.6002 12.5 47.8547 12.5ZM46.2591 8.3615H49.3122C49.2703 7.85457 49.1111 7.48061 48.8347 7.23961C48.5667 6.9903 48.2275 6.86565 47.817 6.86565C47.3898 6.86565 47.0422 6.99446 46.7742 7.25208C46.5062 7.50138 46.3345 7.87119 46.2591 8.3615Z" fill="#F4F4F5"/>
<path d="M54.4083 12.3504L52.0588 5.69391H53.6544L55.3254 10.7548L56.9965 5.69391H58.5921L56.2426 12.3504H54.4083Z" fill="#F4F4F5"/>
<path d="M62.859 12.5C62.2308 12.5 61.678 12.3587 61.2005 12.0762C60.7315 11.7853 60.3671 11.3823 60.1074 10.867C59.8478 10.3435 59.718 9.72853 59.718 9.02216C59.718 8.31579 59.8478 7.70499 60.1074 7.18975C60.3671 6.6662 60.7315 6.26316 61.2005 5.98061C61.678 5.68975 62.2308 5.54432 62.859 5.54432C63.4872 5.54432 64.0358 5.68975 64.5049 5.98061C64.9739 6.26316 65.3383 6.6662 65.598 7.18975C65.866 7.70499 66 8.31579 66 9.02216C66 9.72853 65.866 10.3435 65.598 10.867C65.3383 11.3823 64.9739 11.7853 64.5049 12.0762C64.0358 12.3587 63.4872 12.5 62.859 12.5ZM62.859 11.1787C63.3615 11.1787 63.751 10.9917 64.0274 10.6177C64.3122 10.2355 64.4546 9.7036 64.4546 9.02216C64.4546 8.34072 64.3122 7.81302 64.0274 7.43906C63.751 7.05679 63.3615 6.86565 62.859 6.86565C62.348 6.86565 61.9544 7.05679 61.678 7.43906C61.4015 7.81302 61.2633 8.34072 61.2633 9.02216C61.2633 9.7036 61.4015 10.2355 61.678 10.6177C61.9544 10.9917 62.348 11.1787 62.859 11.1787Z" fill="#F4F4F5"/>
</svg>
