<svg width="600" height="600" viewBox="0 0 600 600" fill="none" xmlns="http://www.w3.org/2000/svg">
<path d="M354.021 198.151C347.222 139.345 332.326 64.4673 299.883 0C267.537 64.508 252.626 139.318 245.86 198.119C216.881 177.934 182.547 158.343 146.252 146.31C158.28 182.619 177.923 216.907 198.041 245.958C139.262 252.726 64.4229 267.584 0 300.002C64.5012 332.399 139.29 347.359 198.072 354.161C177.912 383.141 158.348 417.477 146.341 453.779C182.629 441.767 216.892 422.136 245.92 402.028C252.838 460.714 267.674 535.533 300.117 600C332.463 535.492 347.374 460.682 354.14 401.881C383.119 422.066 417.453 441.657 453.748 453.69C441.72 417.381 422.077 383.093 401.959 354.042C460.738 347.274 535.577 332.416 600 299.998C535.499 267.601 460.71 252.641 401.928 245.839C422.088 216.859 441.652 182.523 453.659 146.221C417.371 158.233 383.108 177.864 354.08 197.972L354.021 198.151ZM359.584 299.988C359.584 299.988 359.584 299.988 359.643 300.166L359.465 299.988C342.574 319.147 330.559 330.571 330.559 330.571C330.559 330.571 319.199 342.65 299.988 359.488L300.166 359.667L299.988 359.607C299.988 359.607 299.988 359.607 299.809 359.667L299.988 359.488C280.825 342.579 269.399 330.554 269.399 330.554C269.399 330.554 257.318 319.182 240.476 299.953L240.297 300.131L240.357 299.953C240.357 299.953 240.357 299.953 240.297 299.774L240.476 299.953C257.367 280.793 269.381 269.369 269.381 269.369C269.381 269.369 280.741 257.29 299.953 240.452L299.774 240.274L299.953 240.333C299.953 240.333 299.953 240.333 300.131 240.274L299.953 240.452C319.115 257.361 330.482 269.446 330.482 269.446C330.482 269.446 342.563 280.818 359.405 300.047L359.583 299.869L359.524 300.047L359.584 299.988Z" fill="white"/>
</svg>
