<svg width="32" height="32" viewBox="0 0 32 32" fill="none" xmlns="http://www.w3.org/2000/svg">
<rect width="32" height="32" rx="8" fill="#F05322"/>
<path d="M18.476 11.3319C18.1643 8.63665 17.4816 5.20475 15.9946 2.25C14.5121 5.20662 13.8287 8.63539 13.5186 11.3305C12.1904 10.4053 10.6167 9.50739 8.95321 8.95587C9.50451 10.6201 10.4048 12.1916 11.3269 13.5231C8.63286 13.8333 5.20272 14.5142 2.25 16.0001C5.20631 17.4849 8.63412 18.1706 11.3283 18.4824C10.4043 19.8106 9.50764 21.3844 8.9573 23.0482C10.6205 22.4977 12.1909 21.5979 13.5213 20.6763C13.8384 23.3661 14.5184 26.7952 16.0054 29.75C17.4879 26.7934 18.1713 23.3646 18.4814 20.6695C19.8096 21.5947 21.3833 22.4926 23.0468 23.0441C22.4955 21.3799 21.5952 19.8084 20.6731 18.4769C23.3671 18.1667 26.7973 17.4858 29.75 15.9999C26.7937 14.5151 23.3659 13.8294 20.6717 13.5176C21.5957 12.1894 22.4924 10.6156 23.0427 8.95178C21.3795 9.50233 19.8091 10.4021 18.4787 11.3237L18.476 11.3319ZM18.7309 15.9994C18.7309 15.9994 18.7309 15.9994 18.7336 16.0076C18.7336 16.0076 18.7282 16.0022 18.7255 15.9994C17.9513 16.8776 17.4006 17.4012 17.4006 17.4012C17.4006 17.4012 16.88 17.9548 15.9994 18.7265C15.9994 18.7265 16.0049 18.732 16.0076 18.7347L15.9994 18.732C15.9994 18.732 15.9994 18.732 15.9913 18.7347C15.9913 18.7347 15.9967 18.7293 15.9994 18.7265C15.1212 17.9516 14.5975 17.4004 14.5975 17.4004C14.5975 17.4004 14.0438 16.8792 13.2718 15.9978C13.2718 15.9978 13.2664 16.0033 13.2636 16.006L13.2664 15.9978C13.2664 15.9978 13.2664 15.9978 13.2636 15.9897C13.2636 15.9897 13.2691 15.9951 13.2718 15.9978C14.046 15.1197 14.5966 14.5961 14.5966 14.5961C14.5966 14.5961 15.1173 14.0425 15.9978 13.2707C15.9978 13.2707 15.9924 13.2653 15.9897 13.2625L15.9978 13.2653C15.9978 13.2653 15.9978 13.2653 16.006 13.2625C16.006 13.2625 16.0006 13.268 15.9978 13.2707C16.8761 14.0457 17.3971 14.5996 17.3971 14.5996C17.3971 14.5996 17.9508 15.1208 18.7227 16.0022C18.7227 16.0022 18.7282 15.9967 18.7309 15.994L18.7282 16.0022L18.7309 15.9994Z" fill="#F4F4F5"/>
</svg>
