<svg width="40" height="40" viewBox="0 0 40 40" fill="none" xmlns="http://www.w3.org/2000/svg">
<path d="M26.0002 33.0016C26.0002 33.2668 25.8948 33.5212 25.7073 33.7087C25.5197 33.8962 25.2654 34.0016 25.0002 34.0016H15.0002C14.7349 34.0016 14.4806 33.8962 14.2931 33.7087C14.1055 33.5212 14.0002 33.2668 14.0002 33.0016C14.0002 32.7364 14.1055 32.482 14.2931 32.2945C14.4806 32.107 14.7349 32.0016 15.0002 32.0016H25.0002C25.2654 32.0016 25.5197 32.107 25.7073 32.2945C25.8948 32.482 26.0002 32.7364 26.0002 33.0016ZM31.0002 17.0016C31.0045 18.6687 30.6279 20.3147 29.8991 21.814C29.1704 23.3133 28.1087 24.6264 26.7952 25.6529C26.5496 25.8411 26.3502 26.083 26.2125 26.3601C26.0747 26.6372 26.0021 26.9422 26.0002 27.2516V28.0016C26.0002 28.532 25.7894 29.0407 25.4144 29.4158C25.0393 29.7909 24.5306 30.0016 24.0002 30.0016H16.0002C15.4697 30.0016 14.961 29.7909 14.586 29.4158C14.2109 29.0407 14.0002 28.532 14.0002 28.0016V27.2516C14 26.9459 13.9297 26.6442 13.7947 26.3699C13.6597 26.0955 13.4635 25.8558 13.2214 25.6691C11.9112 24.6487 10.8502 23.3435 10.1189 21.8525C9.38755 20.3615 9.00499 18.7236 9.00016 17.0629C8.96766 11.1054 13.7827 6.14411 19.7352 6.00161C21.2018 5.96626 22.6608 6.22467 24.0261 6.76163C25.3914 7.29858 26.6355 8.10323 27.6852 9.12822C28.7349 10.1532 29.5689 11.3778 30.1382 12.73C30.7075 14.0821 31.0006 15.5345 31.0002 17.0016ZM29.0002 17.0016C29.0005 15.8012 28.7607 14.6128 28.2949 13.5065C27.8291 12.4001 27.1466 11.3981 26.2877 10.5595C25.4288 9.72086 24.4108 9.06253 23.2936 8.62324C22.1765 8.18395 20.9827 7.9726 19.7827 8.00161C14.9077 8.11661 10.9739 12.1754 11.0002 17.0504C11.0047 18.4086 11.3182 19.748 11.9167 20.9672C12.5153 22.1865 13.3833 23.2536 14.4552 24.0879C14.937 24.4624 15.3267 24.9422 15.5945 25.4906C15.8623 26.039 16.001 26.6413 16.0002 27.2516V28.0016H24.0002V27.2516C24.0016 26.6396 24.1427 26.036 24.4128 25.4868C24.683 24.9377 25.075 24.4575 25.5589 24.0829C26.634 23.2426 27.503 22.1679 28.0994 20.9406C28.6958 19.7134 29.0039 18.3661 29.0002 17.0016ZM26.9864 15.8341C26.7271 14.3857 26.0303 13.0516 24.9897 12.0112C23.9492 10.9709 22.6149 10.2743 21.1664 10.0154C21.0369 9.99352 20.9043 9.99742 20.7763 10.0268C20.6483 10.0562 20.5274 10.1105 20.4203 10.1867C20.3133 10.2628 20.2223 10.3593 20.1526 10.4706C20.0829 10.5819 20.0357 10.7058 20.0139 10.8354C19.9921 10.9649 19.996 11.0974 20.0254 11.2254C20.0548 11.3534 20.1091 11.4744 20.1852 11.5814C20.2614 11.6885 20.3578 11.7794 20.4691 11.8492C20.5804 11.9189 20.7044 11.966 20.8339 11.9879C22.9052 12.3366 24.6627 14.0941 25.0139 16.1691C25.0535 16.402 25.1742 16.6134 25.3548 16.7658C25.5353 16.9181 25.7639 17.0017 26.0002 17.0016C26.0567 17.0013 26.1131 16.9967 26.1689 16.9879C26.4303 16.9432 26.6633 16.7966 26.8166 16.5803C26.9699 16.3639 27.031 16.0955 26.9864 15.8341Z" fill="#A1A1A1"/>
</svg>
