<svg width="40" height="40" viewBox="0 0 40 40" fill="none" xmlns="http://www.w3.org/2000/svg">
<path d="M33.208 14.7927L25.708 7.29268C25.6151 7.1997 25.5048 7.12594 25.3834 7.07562C25.262 7.02529 25.1319 6.99939 25.0005 6.99939C24.8691 6.99939 24.739 7.02529 24.6176 7.07562C24.4962 7.12594 24.3859 7.1997 24.293 7.29268L8.13925 23.4464C7.08966 24.496 6.5 25.9196 6.5 27.4039C6.5 28.8883 7.08966 30.3118 8.13925 31.3614C9.18884 32.411 10.6124 33.0007 12.0967 33.0007C13.5811 33.0007 15.0047 32.411 16.0543 31.3614L30.0405 17.3752L32.8167 16.4502C32.9786 16.3964 33.1239 16.302 33.239 16.1762C33.3541 16.0503 33.4352 15.8972 33.4744 15.7312C33.5136 15.5652 33.5097 15.392 33.4631 15.2279C33.4164 15.0639 33.3286 14.9145 33.208 14.7939V14.7927ZM14.6392 29.9464C13.9608 30.6003 13.0527 30.9618 12.1105 30.9531C11.1682 30.9444 10.267 30.5662 9.60073 29.8999C8.93443 29.2336 8.55626 28.3324 8.54757 27.3902C8.53887 26.4479 8.90035 25.5399 9.55425 24.8614L13.1543 21.2614C14.213 20.8989 15.873 20.7614 18.038 21.8864C19.363 22.5789 20.5605 22.8864 21.608 22.9777L14.6392 29.9464ZM29.1842 15.5514C29.0369 15.6004 28.9029 15.683 28.793 15.7927L23.8468 20.7389C22.788 21.1014 21.128 21.2389 18.963 20.1139C17.638 19.4214 16.4405 19.1139 15.393 19.0227L25.0005 9.41393L30.6493 15.0627L29.1842 15.5514Z" fill="#A1A1A1"/>
</svg>
