<svg width="40" height="40" viewBox="0 0 40 40" fill="none" xmlns="http://www.w3.org/2000/svg">
<path d="M26.7075 22.2925C26.8005 22.3854 26.8742 22.4957 26.9246 22.6171C26.9749 22.7385 27.0008 22.8686 27.0008 23C27.0008 23.1314 26.9749 23.2615 26.9246 23.3829C26.8742 23.5043 26.8005 23.6146 26.7075 23.7075L23.7075 26.7075C23.5199 26.8951 23.2654 27.0006 23 27.0006C22.7346 27.0006 22.4801 26.8951 22.2925 26.7075C22.1049 26.5199 21.9994 26.2654 21.9994 26C21.9994 25.7346 22.1049 25.4801 22.2925 25.2925L24.5863 23L22.2925 20.7075C22.1049 20.5199 21.9994 20.2654 21.9994 20C21.9994 19.7346 22.1049 19.4801 22.2925 19.2925C22.4801 19.1049 22.7346 18.9994 23 18.9994C23.2654 18.9994 23.5199 19.1049 23.7075 19.2925L26.7075 22.2925ZM17.7075 19.2925C17.6146 19.1995 17.5043 19.1258 17.3829 19.0754C17.2615 19.0251 17.1314 18.9992 17 18.9992C16.8686 18.9992 16.7385 19.0251 16.6171 19.0754C16.4957 19.1258 16.3854 19.1995 16.2925 19.2925L13.2925 22.2925C13.1995 22.3854 13.1258 22.4957 13.0754 22.6171C13.0251 22.7385 12.9992 22.8686 12.9992 23C12.9992 23.1314 13.0251 23.2615 13.0754 23.3829C13.1258 23.5043 13.1995 23.6146 13.2925 23.7075L16.2925 26.7075C16.3854 26.8004 16.4957 26.8741 16.6171 26.9244C16.7385 26.9747 16.8686 27.0006 17 27.0006C17.1314 27.0006 17.2615 26.9747 17.3829 26.9244C17.5043 26.8741 17.6146 26.8004 17.7075 26.7075C17.8004 26.6146 17.8741 26.5043 17.9244 26.3829C17.9747 26.2615 18.0006 26.1314 18.0006 26C18.0006 25.8686 17.9747 25.7385 17.9244 25.6171C17.8741 25.4957 17.8004 25.3854 17.7075 25.2925L15.4137 23L17.7075 20.7075C17.8005 20.6146 17.8742 20.5043 17.9246 20.3829C17.9749 20.2615 18.0008 20.1314 18.0008 20C18.0008 19.8686 17.9749 19.7385 17.9246 19.6171C17.8742 19.4957 17.8005 19.3854 17.7075 19.2925ZM31 15V31C31 31.5304 30.7893 32.0391 30.4142 32.4142C30.0391 32.7893 29.5304 33 29 33H11C10.4696 33 9.96086 32.7893 9.58579 32.4142C9.21071 32.0391 9 31.5304 9 31V9C9 8.46957 9.21071 7.96086 9.58579 7.58579C9.96086 7.21071 10.4696 7 11 7H23C23.1314 6.9999 23.2615 7.02568 23.3829 7.07586C23.5042 7.12605 23.6146 7.19967 23.7075 7.2925L30.7075 14.2925C30.8003 14.3854 30.8739 14.4958 30.9241 14.6172C30.9743 14.7385 31.0001 14.8686 31 15ZM24 14H27.5863L24 10.4138V14ZM29 31V16H23C22.7348 16 22.4804 15.8946 22.2929 15.7071C22.1054 15.5196 22 15.2652 22 15V9H11V31H29Z" fill="#A1A1A1"/>
</svg>
