<svg width="40" height="40" viewBox="0 0 40 40" fill="none" xmlns="http://www.w3.org/2000/svg">
<path d="M32.48 9.39294C32.4504 8.90535 32.2433 8.44546 31.8979 8.10005C31.5525 7.75463 31.0926 7.54757 30.605 7.51794C29.0325 7.42419 25.0138 7.56794 21.6788 10.9017L21.085 11.5029H13.7938C13.5301 11.5015 13.2688 11.5524 13.025 11.6528C12.7812 11.7533 12.5599 11.9012 12.3738 12.0879L8.08627 16.3779C7.82333 16.6407 7.63882 16.9715 7.55345 17.3333C7.46809 17.6951 7.48524 18.0736 7.60298 18.4261C7.72073 18.7787 7.93441 19.0915 8.22004 19.3294C8.50567 19.5673 8.85195 19.7209 9.22002 19.7729L14.0288 20.4442L19.555 25.9704L20.2263 30.7817C20.2779 31.1498 20.4314 31.4961 20.6696 31.7815C20.9077 32.0669 21.2209 32.28 21.5738 32.3967C21.7793 32.4654 21.9946 32.5004 22.2113 32.5004C22.4737 32.5009 22.7336 32.4495 22.976 32.3491C23.2184 32.2487 23.4386 32.1013 23.6238 31.9154L27.9138 27.6279C28.1005 27.4418 28.2484 27.2205 28.3489 26.9767C28.4493 26.7329 28.5003 26.4716 28.4988 26.2079V18.9167L29.095 18.3204C32.43 14.9854 32.5738 10.9667 32.48 9.39294ZM13.7938 13.5029H19.085L14.1438 18.4429L9.49877 17.7954L13.7938 13.5029ZM23.095 12.3217C24.0559 11.3549 25.2121 10.6042 26.4862 10.1198C27.7604 9.63548 29.1233 9.42858 30.4838 9.51294C30.5714 10.8742 30.3666 12.2384 29.8833 13.5139C29.3999 14.7894 28.6491 15.9467 27.6813 16.9079L20.4988 24.0879L15.9138 19.5029L23.095 12.3217ZM26.4988 26.2079L22.2075 30.5029L21.5588 25.8567L26.4988 20.9167V26.2079ZM17.2288 27.3954C16.6663 28.6279 14.785 31.5029 9.49877 31.5029C9.23355 31.5029 8.9792 31.3976 8.79166 31.2101C8.60412 31.0225 8.49877 30.7682 8.49877 30.5029C8.49877 25.2167 11.3738 23.3354 12.6063 22.7717C12.7258 22.7172 12.8548 22.6868 12.9861 22.6821C13.1174 22.6775 13.2482 22.6988 13.3713 22.7448C13.4943 22.7907 13.6071 22.8605 13.7032 22.95C13.7993 23.0396 13.8768 23.1472 13.9313 23.2667C13.9858 23.3862 14.0162 23.5153 14.0208 23.6465C14.0254 23.7778 14.0041 23.9087 13.9582 24.0317C13.9122 24.1547 13.8425 24.2675 13.7529 24.3636C13.6634 24.4597 13.5558 24.5372 13.4363 24.5917C12.6325 24.9579 10.8588 26.1367 10.5463 29.4554C13.865 29.1429 15.0463 27.3692 15.41 26.5654C15.4645 26.4459 15.542 26.3383 15.6381 26.2488C15.7342 26.1592 15.847 26.0895 15.97 26.0435C16.093 25.9976 16.2239 25.9763 16.3552 25.9809C16.4864 25.9855 16.6155 26.0159 16.735 26.0704C16.8545 26.1249 16.9621 26.2024 17.0517 26.2985C17.1412 26.3946 17.211 26.5074 17.2569 26.6304C17.3029 26.7535 17.3242 26.8843 17.3196 27.0156C17.3149 27.1469 17.2845 27.2759 17.23 27.3954H17.2288Z" fill="#A1A1A1"/>
</svg>
